<svg class="svg-icon" viewBox="0 0 20 20">
    <path d="M305.969,323.05c13.036,0,23.593-10.557,23.593-23.593V123.813c0-13.036-10.557-23.593-23.593-23.593
    c-13.066,0-23.593,10.557-23.593,23.593v175.644C282.377,312.493,292.934,323.05,305.969,323.05z"></path>
    <path d="M94.038,179.011c-4.589-4.588-10.603-6.883-16.617-6.883s-12.028,2.294-16.617,6.883c-9.177,9.177-9.177,24.057,0,33.234
    l457.158,457.158c4.589,4.589,10.603,6.883,16.617,6.883c6.015,0,12.028-2.294,16.617-6.883c9.177-9.178,9.177-24.057,0-33.234
    L94.038,179.011z"></path>
    <path d="M395.689,201.935c85.435,36.139,140.699,119.462,140.76,212.272c0,41.642-11.106,80.736-30.509,114.48l34.305,34.305
    c27.439-43.033,43.358-94.087,43.358-148.785c-0.061-111.874-66.616-212.242-169.585-255.724
    c-11.903-5.018-25.826,0.52-30.906,12.546C378.032,182.993,383.663,196.886,395.689,201.935z"></path>
    <path d="M191.482,214.229c7.396-4.234,15.077-8.088,23.024-11.53c11.965-5.141,17.442-19.064,12.301-30.998
    c-5.202-11.995-19.094-17.473-31.028-12.301c-13.547,5.867-26.448,12.735-38.647,20.479L191.482,214.229z"></path>
    <path d="M407.399,621.066c-30.609,15.055-65.015,23.528-101.369,23.528c-127.021,0-230.387-103.336-230.387-230.387
    c-0.036-35.925,8.271-70.489,23.445-101.452l-34.934-34.934c-23.01,40.788-35.784,87.541-35.757,136.386
    c0,153.061,124.511,277.573,277.573,277.573c49.506,0,96.017-13.038,136.306-35.837L407.399,621.066z"></path>
</svg>